<svg xmlns="http://www.w3.org/2000/svg" xmlns:xlink="http://www.w3.org/1999/xlink" width="500" zoomAndPan="magnify" viewBox="0 0 375 374.999991" height="500" preserveAspectRatio="xMidYMid meet" version="1.0"><defs><g/><clipPath id="556199696b"><path d="M 63.082031 63.082031 L 312.082031 63.082031 L 312.082031 312.082031 L 63.082031 312.082031 Z M 63.082031 63.082031 " clip-rule="nonzero"/></clipPath><clipPath id="3fad74a3f5"><path d="M 102.25 102.378906 L 272.5 102.378906 L 272.5 149.628906 L 102.25 149.628906 Z M 102.25 102.378906 " clip-rule="nonzero"/></clipPath><clipPath id="b01361a45d"><path d="M 102.25 218.679688 L 272.5 218.679688 L 272.5 272.5 L 102.25 272.5 Z M 102.25 218.679688 " clip-rule="nonzero"/></clipPath></defs><rect x="-37.5" width="450" fill="#ffffff" y="-37.499999" height="449.999989" fill-opacity="1"/><rect x="-37.5" width="450" fill="#ffffff" y="-37.499999" height="449.999989" fill-opacity="1"/><g clip-path="url(#556199696b)"><path fill="#000000" d="M 187.582031 312.082031 C 118.957031 312.082031 63.082031 256.210938 63.082031 187.582031 C 63.082031 118.957031 118.957031 63.082031 187.582031 63.082031 C 256.210938 63.082031 312.082031 118.957031 312.082031 187.582031 C 312.082031 256.210938 256.210938 312.082031 187.582031 312.082031 Z M 187.582031 64.921875 C 119.9375 64.921875 64.921875 119.9375 64.921875 187.582031 C 64.921875 255.230469 119.9375 310.242188 187.582031 310.242188 C 255.230469 310.242188 310.242188 255.230469 310.242188 187.582031 C 310.242188 119.9375 255.230469 64.921875 187.582031 64.921875 Z M 187.582031 64.921875 " fill-opacity="1" fill-rule="nonzero"/></g><g clip-path="url(#3fad74a3f5)"><path fill="#000000" d="M 187.375 272.628906 C 140.449219 272.628906 102.25 234.425781 102.25 187.503906 C 102.25 140.578125 140.449219 102.378906 187.375 102.378906 C 234.296875 102.378906 272.5 140.578125 272.5 187.503906 C 272.5 234.425781 234.296875 272.628906 187.375 272.628906 Z M 187.375 103.636719 C 141.121094 103.636719 103.507812 141.25 103.507812 187.503906 C 103.507812 233.753906 141.121094 271.371094 187.375 271.371094 C 233.628906 271.371094 271.242188 233.753906 271.242188 187.503906 C 271.242188 141.25 233.628906 103.636719 187.375 103.636719 Z M 187.375 103.636719 " fill-opacity="1" fill-rule="nonzero"/></g><g clip-path="url(#b01361a45d)"><path fill="#000000" d="M 187.375 272.5 C 140.449219 272.5 102.25 234.296875 102.25 187.375 C 102.25 140.449219 140.449219 102.25 187.375 102.25 C 234.296875 102.25 272.5 140.449219 272.5 187.375 C 272.5 234.296875 234.296875 272.5 187.375 272.5 Z M 187.375 103.507812 C 141.121094 103.507812 103.507812 141.121094 103.507812 187.375 C 103.507812 233.628906 141.121094 271.242188 187.375 271.242188 C 233.628906 271.242188 271.242188 233.628906 271.242188 187.375 C 271.242188 141.121094 233.628906 103.507812 187.375 103.507812 Z M 187.375 103.507812 " fill-opacity="1" fill-rule="nonzero"/></g><g fill="#000000" fill-opacity="1"><g transform="translate(76.384379, 194.202014)"><g><path d="M 1.09375 -1.4375 C 1.476562 -1.445312 1.769531 -1.492188 1.96875 -1.578125 C 2.175781 -1.660156 2.335938 -1.832031 2.453125 -2.09375 C 2.578125 -2.351562 2.640625 -2.765625 2.640625 -3.328125 L 2.640625 -11.671875 C 2.640625 -12.484375 2.664062 -13.132812 2.71875 -13.625 L 1.09375 -13.5625 L 1.09375 -15.234375 L 7.328125 -15.234375 L 7.328125 -13.796875 C 6.941406 -13.785156 6.644531 -13.738281 6.4375 -13.65625 C 6.238281 -13.570312 6.082031 -13.398438 5.96875 -13.140625 C 5.851562 -12.878906 5.796875 -12.46875 5.796875 -11.90625 L 5.796875 -8.59375 L 7.359375 -8.59375 L 9.03125 -11.453125 C 9.726562 -12.671875 10.222656 -13.394531 10.515625 -13.625 L 10.515625 -13.640625 C 10.191406 -13.617188 9.914062 -13.601562 9.6875 -13.59375 C 9.457031 -13.582031 9.273438 -13.570312 9.140625 -13.5625 L 9.140625 -15.234375 L 14.46875 -15.234375 L 14.46875 -13.796875 C 13.84375 -13.765625 13.257812 -13.601562 12.71875 -13.3125 C 12.175781 -13.03125 11.632812 -12.453125 11.09375 -11.578125 L 9.015625 -8.234375 L 9.015625 -8.203125 C 9.566406 -7.867188 10.019531 -7.445312 10.375 -6.9375 L 12.625 -3.78125 C 13.695312 -2.257812 14.644531 -1.476562 15.46875 -1.4375 L 15.46875 0 L 12.125 0 C 11.96875 -0.0078125 11.648438 -0.265625 11.171875 -0.765625 C 10.703125 -1.273438 10.304688 -1.757812 9.984375 -2.21875 L 7.828125 -5.359375 C 7.628906 -5.648438 7.410156 -5.9375 7.171875 -6.21875 C 6.941406 -6.507812 6.742188 -6.722656 6.578125 -6.859375 L 5.796875 -6.859375 L 5.796875 -3.5625 C 5.796875 -2.75 5.765625 -2.097656 5.703125 -1.609375 C 6.171875 -1.648438 6.710938 -1.671875 7.328125 -1.671875 L 7.328125 0 L 1.09375 0 Z M 1.09375 -1.4375 "/></g></g></g><g fill="#000000" fill-opacity="1"><g transform="translate(91.878683, 194.202014)"><g><path d="M 3.609375 0.34375 C 2.691406 0.34375 1.96875 0.0703125 1.4375 -0.46875 C 0.914062 -1.007812 0.65625 -1.703125 0.65625 -2.546875 C 0.65625 -3.828125 1.25 -4.796875 2.4375 -5.453125 C 3.625 -6.109375 5.050781 -6.472656 6.71875 -6.546875 L 6.71875 -7.6875 C 6.71875 -9 6.226562 -9.65625 5.25 -9.65625 C 4.601562 -9.65625 4.078125 -9.453125 3.671875 -9.046875 C 3.847656 -8.847656 3.9375 -8.578125 3.9375 -8.234375 C 3.9375 -7.878906 3.816406 -7.5625 3.578125 -7.28125 C 3.335938 -7.007812 2.988281 -6.875 2.53125 -6.875 C 2.09375 -6.875 1.75 -7.015625 1.5 -7.296875 C 1.25 -7.585938 1.125 -7.941406 1.125 -8.359375 C 1.125 -8.921875 1.328125 -9.421875 1.734375 -9.859375 C 2.140625 -10.296875 2.695312 -10.632812 3.40625 -10.875 C 4.113281 -11.113281 4.882812 -11.234375 5.71875 -11.234375 C 8.40625 -11.234375 9.75 -9.847656 9.75 -7.078125 L 9.734375 -3.5 C 9.734375 -2.800781 9.703125 -2.164062 9.640625 -1.59375 C 10.117188 -1.632812 10.59375 -1.65625 11.0625 -1.65625 L 11.0625 0 L 6.9375 0 C 6.914062 -0.1875 6.890625 -0.519531 6.859375 -1 L 6.828125 -1 C 5.941406 -0.101562 4.867188 0.34375 3.609375 0.34375 Z M 4.984375 -1.78125 C 5.640625 -1.78125 6.210938 -2.039062 6.703125 -2.5625 L 6.703125 -5 C 5.847656 -4.914062 5.140625 -4.695312 4.578125 -4.34375 C 4.023438 -4 3.75 -3.53125 3.75 -2.9375 C 3.75 -2.539062 3.867188 -2.25 4.109375 -2.0625 C 4.347656 -1.875 4.640625 -1.78125 4.984375 -1.78125 Z M 4.984375 -1.78125 "/></g></g></g><g fill="#000000" fill-opacity="1"><g transform="translate(103.281792, 194.202014)"><g><path d="M 0.890625 -1.421875 C 1.441406 -1.421875 1.789062 -1.570312 1.9375 -1.875 C 2.09375 -2.175781 2.171875 -2.671875 2.171875 -3.359375 L 2.171875 -7.015625 C 2.171875 -7.660156 2.203125 -8.273438 2.265625 -8.859375 L 0.734375 -8.796875 L 0.734375 -10.453125 C 1.648438 -10.453125 2.390625 -10.515625 2.953125 -10.640625 C 3.523438 -10.773438 3.90625 -10.925781 4.09375 -11.09375 L 5.15625 -11.09375 C 5.1875 -10.882812 5.207031 -10.601562 5.21875 -10.25 C 5.238281 -9.90625 5.25 -9.566406 5.25 -9.234375 L 5.296875 -9.234375 C 6.273438 -10.566406 7.316406 -11.234375 8.421875 -11.234375 C 8.972656 -11.234375 9.425781 -11.078125 9.78125 -10.765625 C 10.132812 -10.460938 10.3125 -10.015625 10.3125 -9.421875 C 10.3125 -9.046875 10.1875 -8.695312 9.9375 -8.375 C 9.695312 -8.0625 9.332031 -7.90625 8.84375 -7.90625 C 8.476562 -7.90625 8.148438 -8 7.859375 -8.1875 C 7.578125 -8.375 7.414062 -8.695312 7.375 -9.15625 C 6.96875 -9.15625 6.550781 -8.921875 6.125 -8.453125 C 5.695312 -7.984375 5.410156 -7.515625 5.265625 -7.046875 L 5.265625 -3.5 C 5.265625 -2.800781 5.238281 -2.164062 5.1875 -1.59375 C 5.644531 -1.632812 6.113281 -1.65625 6.59375 -1.65625 L 6.59375 0 L 0.890625 0 Z M 0.890625 -1.421875 "/></g></g></g><g fill="#000000" fill-opacity="1"><g transform="translate(113.727386, 194.202014)"><g><path d="M 0.890625 -1.421875 C 1.441406 -1.421875 1.789062 -1.570312 1.9375 -1.875 C 2.09375 -2.175781 2.171875 -2.671875 2.171875 -3.359375 L 2.171875 -7.015625 C 2.171875 -7.660156 2.203125 -8.273438 2.265625 -8.859375 L 0.734375 -8.796875 L 0.734375 -10.453125 C 1.648438 -10.453125 2.390625 -10.515625 2.953125 -10.640625 C 3.523438 -10.773438 3.90625 -10.925781 4.09375 -11.09375 L 5.15625 -11.09375 C 5.15625 -11.070312 5.1875 -10.710938 5.25 -10.015625 L 5.296875 -10.015625 C 5.742188 -10.378906 6.25 -10.671875 6.8125 -10.890625 C 7.375 -11.117188 7.925781 -11.234375 8.46875 -11.234375 C 9.125 -11.234375 9.671875 -11.113281 10.109375 -10.875 C 10.554688 -10.632812 10.910156 -10.273438 11.171875 -9.796875 C 11.691406 -10.234375 12.269531 -10.582031 12.90625 -10.84375 C 13.539062 -11.101562 14.144531 -11.234375 14.71875 -11.234375 C 15.914062 -11.234375 16.804688 -10.882812 17.390625 -10.1875 C 17.984375 -9.488281 18.28125 -8.328125 18.28125 -6.703125 L 18.28125 -3.5 C 18.28125 -2.800781 18.253906 -2.164062 18.203125 -1.59375 C 18.660156 -1.632812 19.128906 -1.65625 19.609375 -1.65625 L 19.609375 0 L 14.109375 0 L 14.109375 -1.421875 C 14.566406 -1.421875 14.859375 -1.570312 14.984375 -1.875 C 15.117188 -2.1875 15.1875 -2.679688 15.1875 -3.359375 L 15.1875 -6.6875 C 15.175781 -7.59375 15.023438 -8.238281 14.734375 -8.625 C 14.441406 -9.007812 14.019531 -9.203125 13.46875 -9.203125 C 12.832031 -9.203125 12.207031 -8.960938 11.59375 -8.484375 C 11.726562 -7.910156 11.796875 -7.222656 11.796875 -6.421875 L 11.796875 -3.5 C 11.796875 -2.800781 11.765625 -2.164062 11.703125 -1.59375 C 12.171875 -1.632812 12.644531 -1.65625 13.125 -1.65625 L 13.125 0 L 7.515625 0 L 7.515625 -1.421875 C 8.015625 -1.421875 8.335938 -1.570312 8.484375 -1.875 C 8.628906 -2.175781 8.703125 -2.671875 8.703125 -3.359375 L 8.6875 -6.75 C 8.6875 -7.644531 8.554688 -8.273438 8.296875 -8.640625 C 8.035156 -9.015625 7.644531 -9.210938 7.125 -9.234375 C 6.476562 -9.234375 5.859375 -8.960938 5.265625 -8.421875 L 5.265625 -3.5 C 5.265625 -2.800781 5.238281 -2.164062 5.1875 -1.59375 C 5.644531 -1.632812 6.078125 -1.65625 6.484375 -1.65625 L 6.484375 0 L 0.890625 0 Z M 0.890625 -1.421875 "/></g></g></g><g fill="#000000" fill-opacity="1"><g transform="translate(133.748114, 194.202014)"><g><path d="M 3.609375 0.34375 C 2.691406 0.34375 1.96875 0.0703125 1.4375 -0.46875 C 0.914062 -1.007812 0.65625 -1.703125 0.65625 -2.546875 C 0.65625 -3.828125 1.25 -4.796875 2.4375 -5.453125 C 3.625 -6.109375 5.050781 -6.472656 6.71875 -6.546875 L 6.71875 -7.6875 C 6.71875 -9 6.226562 -9.65625 5.25 -9.65625 C 4.601562 -9.65625 4.078125 -9.453125 3.671875 -9.046875 C 3.847656 -8.847656 3.9375 -8.578125 3.9375 -8.234375 C 3.9375 -7.878906 3.816406 -7.5625 3.578125 -7.28125 C 3.335938 -7.007812 2.988281 -6.875 2.53125 -6.875 C 2.09375 -6.875 1.75 -7.015625 1.5 -7.296875 C 1.25 -7.585938 1.125 -7.941406 1.125 -8.359375 C 1.125 -8.921875 1.328125 -9.421875 1.734375 -9.859375 C 2.140625 -10.296875 2.695312 -10.632812 3.40625 -10.875 C 4.113281 -11.113281 4.882812 -11.234375 5.71875 -11.234375 C 8.40625 -11.234375 9.75 -9.847656 9.75 -7.078125 L 9.734375 -3.5 C 9.734375 -2.800781 9.703125 -2.164062 9.640625 -1.59375 C 10.117188 -1.632812 10.59375 -1.65625 11.0625 -1.65625 L 11.0625 0 L 6.9375 0 C 6.914062 -0.1875 6.890625 -0.519531 6.859375 -1 L 6.828125 -1 C 5.941406 -0.101562 4.867188 0.34375 3.609375 0.34375 Z M 4.984375 -1.78125 C 5.640625 -1.78125 6.210938 -2.039062 6.703125 -2.5625 L 6.703125 -5 C 5.847656 -4.914062 5.140625 -4.695312 4.578125 -4.34375 C 4.023438 -4 3.75 -3.53125 3.75 -2.9375 C 3.75 -2.539062 3.867188 -2.25 4.109375 -2.0625 C 4.347656 -1.875 4.640625 -1.78125 4.984375 -1.78125 Z M 4.984375 -1.78125 "/></g></g></g><g fill="#000000" fill-opacity="1"><g transform="translate(145.151224, 194.202014)"><g><path d="M 1.109375 -8.015625 L 9.125 -8.015625 L 9.125 -5.71875 L 1.109375 -5.65625 Z M 1.109375 -8.015625 "/></g></g></g><g fill="#000000" fill-opacity="1"><g transform="translate(155.400964, 194.202014)"><g><path d="M 5.9375 -6.9375 C 5.71875 -7.445312 5.457031 -8.160156 5.15625 -9.078125 C 4.863281 -9.992188 4.617188 -10.921875 4.421875 -11.859375 L 4.390625 -11.859375 C 4.441406 -10.535156 4.46875 -9.332031 4.46875 -8.25 L 4.46875 -7.515625 L 4.4375 -3.5625 C 4.4375 -2.664062 4.398438 -2.015625 4.328125 -1.609375 C 4.804688 -1.648438 5.359375 -1.671875 5.984375 -1.671875 L 5.984375 0 L 1.015625 0 L 1.015625 -1.4375 C 1.410156 -1.445312 1.707031 -1.492188 1.90625 -1.578125 C 2.113281 -1.660156 2.273438 -1.832031 2.390625 -2.09375 C 2.503906 -2.351562 2.5625 -2.765625 2.5625 -3.328125 L 2.703125 -11.671875 C 2.734375 -12.722656 2.757812 -13.375 2.78125 -13.625 L 1.15625 -13.5625 L 1.15625 -15.234375 L 5.96875 -15.234375 L 9.25 -6.8125 C 9.46875 -6.25 9.695312 -5.625 9.9375 -4.9375 C 10.1875 -4.257812 10.363281 -3.738281 10.46875 -3.375 L 10.484375 -3.375 C 10.546875 -3.519531 10.707031 -3.96875 10.96875 -4.71875 C 11.175781 -5.3125 11.359375 -5.820312 11.515625 -6.25 L 14.890625 -15.234375 L 19.921875 -15.234375 L 19.921875 -13.796875 C 19.523438 -13.785156 19.21875 -13.738281 19 -13.65625 C 18.78125 -13.570312 18.613281 -13.398438 18.5 -13.140625 C 18.382812 -12.878906 18.332031 -12.46875 18.34375 -11.90625 L 18.671875 -3.5625 C 18.710938 -2.820312 18.6875 -2.171875 18.59375 -1.609375 C 19.070312 -1.648438 19.617188 -1.671875 20.234375 -1.671875 L 20.234375 0 L 14.1875 0 L 14.1875 -1.4375 C 14.582031 -1.445312 14.882812 -1.492188 15.09375 -1.578125 C 15.300781 -1.660156 15.460938 -1.832031 15.578125 -2.09375 C 15.703125 -2.351562 15.753906 -2.765625 15.734375 -3.328125 L 15.5625 -7.9375 L 15.515625 -8.765625 C 15.441406 -10.179688 15.398438 -11.160156 15.390625 -11.703125 L 15.359375 -11.703125 L 10.90625 0.21875 L 8.875 0.21875 Z M 5.9375 -6.9375 "/></g></g></g><g fill="#000000" fill-opacity="1"><g transform="translate(176.553295, 194.202014)"><g><path d="M 3.609375 0.34375 C 2.691406 0.34375 1.96875 0.0703125 1.4375 -0.46875 C 0.914062 -1.007812 0.65625 -1.703125 0.65625 -2.546875 C 0.65625 -3.828125 1.25 -4.796875 2.4375 -5.453125 C 3.625 -6.109375 5.050781 -6.472656 6.71875 -6.546875 L 6.71875 -7.6875 C 6.71875 -9 6.226562 -9.65625 5.25 -9.65625 C 4.601562 -9.65625 4.078125 -9.453125 3.671875 -9.046875 C 3.847656 -8.847656 3.9375 -8.578125 3.9375 -8.234375 C 3.9375 -7.878906 3.816406 -7.5625 3.578125 -7.28125 C 3.335938 -7.007812 2.988281 -6.875 2.53125 -6.875 C 2.09375 -6.875 1.75 -7.015625 1.5 -7.296875 C 1.25 -7.585938 1.125 -7.941406 1.125 -8.359375 C 1.125 -8.921875 1.328125 -9.421875 1.734375 -9.859375 C 2.140625 -10.296875 2.695312 -10.632812 3.40625 -10.875 C 4.113281 -11.113281 4.882812 -11.234375 5.71875 -11.234375 C 8.40625 -11.234375 9.75 -9.847656 9.75 -7.078125 L 9.734375 -3.5 C 9.734375 -2.800781 9.703125 -2.164062 9.640625 -1.59375 C 10.117188 -1.632812 10.59375 -1.65625 11.0625 -1.65625 L 11.0625 0 L 6.9375 0 C 6.914062 -0.1875 6.890625 -0.519531 6.859375 -1 L 6.828125 -1 C 5.941406 -0.101562 4.867188 0.34375 3.609375 0.34375 Z M 4.984375 -1.78125 C 5.640625 -1.78125 6.210938 -2.039062 6.703125 -2.5625 L 6.703125 -5 C 5.847656 -4.914062 5.140625 -4.695312 4.578125 -4.34375 C 4.023438 -4 3.75 -3.53125 3.75 -2.9375 C 3.75 -2.539062 3.867188 -2.25 4.109375 -2.0625 C 4.347656 -1.875 4.640625 -1.78125 4.984375 -1.78125 Z M 4.984375 -1.78125 "/></g></g></g><g fill="#000000" fill-opacity="1"><g transform="translate(187.956404, 194.202014)"><g><path d="M 0.890625 -1.421875 C 1.441406 -1.421875 1.789062 -1.570312 1.9375 -1.875 C 2.09375 -2.175781 2.171875 -2.671875 2.171875 -3.359375 L 2.171875 -7.015625 C 2.171875 -7.660156 2.203125 -8.273438 2.265625 -8.859375 L 0.734375 -8.796875 L 0.734375 -10.453125 C 1.648438 -10.453125 2.390625 -10.515625 2.953125 -10.640625 C 3.523438 -10.773438 3.90625 -10.925781 4.09375 -11.09375 L 5.15625 -11.09375 C 5.15625 -11.070312 5.1875 -10.710938 5.25 -10.015625 L 5.296875 -10.015625 C 5.710938 -10.347656 6.226562 -10.632812 6.84375 -10.875 C 7.457031 -11.113281 7.984375 -11.234375 8.421875 -11.234375 C 9.742188 -11.234375 10.6875 -10.851562 11.25 -10.09375 C 11.820312 -9.34375 12.109375 -8.117188 12.109375 -6.421875 L 12.109375 -3.5 C 12.109375 -2.800781 12.078125 -2.164062 12.015625 -1.59375 C 12.492188 -1.632812 12.960938 -1.65625 13.421875 -1.65625 L 13.421875 0 L 7.734375 0 L 7.734375 -1.421875 C 8.273438 -1.421875 8.625 -1.570312 8.78125 -1.875 C 8.945312 -2.175781 9.03125 -2.671875 9.03125 -3.359375 L 9.015625 -6.4375 C 9.015625 -7.394531 8.878906 -8.097656 8.609375 -8.546875 C 8.335938 -9.003906 7.882812 -9.234375 7.25 -9.234375 C 6.894531 -9.234375 6.535156 -9.15625 6.171875 -9 C 5.816406 -8.84375 5.515625 -8.648438 5.265625 -8.421875 L 5.265625 -3.5 C 5.265625 -2.800781 5.238281 -2.164062 5.1875 -1.59375 C 5.644531 -1.632812 6.113281 -1.65625 6.59375 -1.65625 L 6.59375 0 L 0.890625 0 Z M 0.890625 -1.421875 "/></g></g></g><g fill="#000000" fill-opacity="1"><g transform="translate(201.796819, 194.202014)"><g><path d="M 3.609375 0.34375 C 2.691406 0.34375 1.96875 0.0703125 1.4375 -0.46875 C 0.914062 -1.007812 0.65625 -1.703125 0.65625 -2.546875 C 0.65625 -3.828125 1.25 -4.796875 2.4375 -5.453125 C 3.625 -6.109375 5.050781 -6.472656 6.71875 -6.546875 L 6.71875 -7.6875 C 6.71875 -9 6.226562 -9.65625 5.25 -9.65625 C 4.601562 -9.65625 4.078125 -9.453125 3.671875 -9.046875 C 3.847656 -8.847656 3.9375 -8.578125 3.9375 -8.234375 C 3.9375 -7.878906 3.816406 -7.5625 3.578125 -7.28125 C 3.335938 -7.007812 2.988281 -6.875 2.53125 -6.875 C 2.09375 -6.875 1.75 -7.015625 1.5 -7.296875 C 1.25 -7.585938 1.125 -7.941406 1.125 -8.359375 C 1.125 -8.921875 1.328125 -9.421875 1.734375 -9.859375 C 2.140625 -10.296875 2.695312 -10.632812 3.40625 -10.875 C 4.113281 -11.113281 4.882812 -11.234375 5.71875 -11.234375 C 8.40625 -11.234375 9.75 -9.847656 9.75 -7.078125 L 9.734375 -3.5 C 9.734375 -2.800781 9.703125 -2.164062 9.640625 -1.59375 C 10.117188 -1.632812 10.59375 -1.65625 11.0625 -1.65625 L 11.0625 0 L 6.9375 0 C 6.914062 -0.1875 6.890625 -0.519531 6.859375 -1 L 6.828125 -1 C 5.941406 -0.101562 4.867188 0.34375 3.609375 0.34375 Z M 4.984375 -1.78125 C 5.640625 -1.78125 6.210938 -2.039062 6.703125 -2.5625 L 6.703125 -5 C 5.847656 -4.914062 5.140625 -4.695312 4.578125 -4.34375 C 4.023438 -4 3.75 -3.53125 3.75 -2.9375 C 3.75 -2.539062 3.867188 -2.25 4.109375 -2.0625 C 4.347656 -1.875 4.640625 -1.78125 4.984375 -1.78125 Z M 4.984375 -1.78125 "/></g></g></g><g fill="#000000" fill-opacity="1"><g transform="translate(213.199929, 194.202014)"><g><path d="M 5.578125 5.90625 C 3.816406 5.90625 2.546875 5.632812 1.765625 5.09375 C 0.992188 4.550781 0.609375 3.867188 0.609375 3.046875 C 0.609375 2.535156 0.769531 2.054688 1.09375 1.609375 C 1.425781 1.171875 1.953125 0.816406 2.671875 0.546875 C 2.109375 0.390625 1.695312 0.144531 1.4375 -0.1875 C 1.1875 -0.53125 1.0625 -0.925781 1.0625 -1.375 C 1.0625 -1.8125 1.234375 -2.253906 1.578125 -2.703125 C 1.921875 -3.148438 2.453125 -3.484375 3.171875 -3.703125 L 3.171875 -3.71875 C 2.523438 -3.976562 2.007812 -4.390625 1.625 -4.953125 C 1.238281 -5.515625 1.046875 -6.175781 1.046875 -6.9375 C 1.046875 -7.75 1.273438 -8.484375 1.734375 -9.140625 C 2.191406 -9.796875 2.789062 -10.304688 3.53125 -10.671875 C 4.28125 -11.046875 5.070312 -11.234375 5.90625 -11.234375 C 6.332031 -11.234375 6.785156 -11.175781 7.265625 -11.0625 C 7.742188 -10.957031 8.148438 -10.789062 8.484375 -10.5625 C 8.765625 -11.3125 9.132812 -11.9375 9.59375 -12.4375 C 10.0625 -12.9375 10.613281 -13.1875 11.25 -13.1875 C 11.726562 -13.1875 12.097656 -13.0625 12.359375 -12.8125 C 12.617188 -12.570312 12.75 -12.234375 12.75 -11.796875 C 12.75 -11.460938 12.644531 -11.15625 12.4375 -10.875 C 12.226562 -10.601562 11.898438 -10.46875 11.453125 -10.46875 C 11.210938 -10.46875 10.976562 -10.550781 10.75 -10.71875 C 10.53125 -10.882812 10.398438 -11.082031 10.359375 -11.3125 C 10.171875 -11.257812 9.984375 -11.078125 9.796875 -10.765625 C 9.609375 -10.453125 9.5 -10.164062 9.46875 -9.90625 C 9.875 -9.539062 10.1875 -9.117188 10.40625 -8.640625 C 10.632812 -8.160156 10.75 -7.644531 10.75 -7.09375 C 10.75 -6.28125 10.515625 -5.539062 10.046875 -4.875 C 9.585938 -4.21875 8.976562 -3.703125 8.21875 -3.328125 C 7.46875 -2.960938 6.664062 -2.78125 5.8125 -2.78125 L 5.203125 -2.8125 C 4.878906 -2.832031 4.644531 -2.84375 4.5 -2.84375 C 4.1875 -2.84375 3.921875 -2.785156 3.703125 -2.671875 C 3.484375 -2.554688 3.375 -2.398438 3.375 -2.203125 C 3.375 -1.941406 3.570312 -1.753906 3.96875 -1.640625 C 4.375 -1.535156 5.101562 -1.453125 6.15625 -1.390625 C 7.988281 -1.285156 9.375 -0.976562 10.3125 -0.46875 C 11.257812 0.03125 11.734375 0.875 11.734375 2.0625 C 11.734375 2.851562 11.429688 3.535156 10.828125 4.109375 C 10.222656 4.691406 9.445312 5.132812 8.5 5.4375 C 7.550781 5.75 6.578125 5.90625 5.578125 5.90625 Z M 5.90625 -4.25 C 6.445312 -4.25 6.878906 -4.492188 7.203125 -4.984375 C 7.535156 -5.472656 7.703125 -6.046875 7.703125 -6.703125 C 7.703125 -7.523438 7.539062 -8.238281 7.21875 -8.84375 C 6.90625 -9.457031 6.457031 -9.765625 5.875 -9.765625 C 5.320312 -9.765625 4.878906 -9.507812 4.546875 -9 C 4.210938 -8.5 4.046875 -7.898438 4.046875 -7.203125 C 4.046875 -6.390625 4.210938 -5.691406 4.546875 -5.109375 C 4.878906 -4.535156 5.332031 -4.25 5.90625 -4.25 Z M 6.203125 4.390625 C 6.859375 4.390625 7.421875 4.300781 7.890625 4.125 C 8.359375 3.957031 8.71875 3.738281 8.96875 3.46875 C 9.21875 3.195312 9.34375 2.925781 9.34375 2.65625 C 9.34375 2.207031 9.082031 1.863281 8.5625 1.625 C 8.050781 1.394531 7.265625 1.257812 6.203125 1.21875 C 6.085938 1.207031 5.898438 1.203125 5.640625 1.203125 C 5.492188 1.179688 5.238281 1.160156 4.875 1.140625 C 4.507812 1.117188 4.210938 1.085938 3.984375 1.046875 C 3.765625 1.222656 3.59375 1.445312 3.46875 1.71875 C 3.34375 2 3.28125 2.273438 3.28125 2.546875 C 3.28125 3.109375 3.546875 3.554688 4.078125 3.890625 C 4.609375 4.222656 5.316406 4.390625 6.203125 4.390625 Z M 6.203125 4.390625 "/></g></g></g><g fill="#000000" fill-opacity="1"><g transform="translate(225.321167, 194.202014)"><g><path d="M 6.046875 0.34375 C 4.992188 0.34375 4.0625 0.109375 3.25 -0.359375 C 2.4375 -0.828125 1.800781 -1.492188 1.34375 -2.359375 C 0.894531 -3.234375 0.671875 -4.253906 0.671875 -5.421875 C 0.671875 -6.429688 0.898438 -7.382812 1.359375 -8.28125 C 1.816406 -9.175781 2.457031 -9.890625 3.28125 -10.421875 C 4.113281 -10.960938 5.054688 -11.234375 6.109375 -11.234375 C 7.523438 -11.234375 8.695312 -10.816406 9.625 -9.984375 C 10.5625 -9.160156 11.023438 -7.785156 11.015625 -5.859375 L 3.875 -5.71875 C 3.875 -4.445312 4.113281 -3.441406 4.59375 -2.703125 C 5.082031 -1.960938 5.863281 -1.59375 6.9375 -1.59375 C 7.445312 -1.59375 7.992188 -1.722656 8.578125 -1.984375 C 9.160156 -2.242188 9.679688 -2.65625 10.140625 -3.21875 L 11.125 -2.3125 C 9.882812 -0.539062 8.191406 0.34375 6.046875 0.34375 Z M 8.015625 -7.25 C 7.960938 -8.882812 7.363281 -9.703125 6.21875 -9.703125 C 5.601562 -9.703125 5.109375 -9.476562 4.734375 -9.03125 C 4.359375 -8.59375 4.113281 -8 4 -7.25 Z M 8.015625 -7.25 "/></g></g></g><g fill="#000000" fill-opacity="1"><g transform="translate(237.028941, 194.202014)"><g><path d="M 0.890625 -1.421875 C 1.441406 -1.421875 1.789062 -1.570312 1.9375 -1.875 C 2.09375 -2.175781 2.171875 -2.671875 2.171875 -3.359375 L 2.171875 -7.015625 C 2.171875 -7.660156 2.203125 -8.273438 2.265625 -8.859375 L 0.734375 -8.796875 L 0.734375 -10.453125 C 1.648438 -10.453125 2.390625 -10.515625 2.953125 -10.640625 C 3.523438 -10.773438 3.90625 -10.925781 4.09375 -11.09375 L 5.15625 -11.09375 C 5.1875 -10.882812 5.207031 -10.601562 5.21875 -10.25 C 5.238281 -9.90625 5.25 -9.566406 5.25 -9.234375 L 5.296875 -9.234375 C 6.273438 -10.566406 7.316406 -11.234375 8.421875 -11.234375 C 8.972656 -11.234375 9.425781 -11.078125 9.78125 -10.765625 C 10.132812 -10.460938 10.3125 -10.015625 10.3125 -9.421875 C 10.3125 -9.046875 10.1875 -8.695312 9.9375 -8.375 C 9.695312 -8.0625 9.332031 -7.90625 8.84375 -7.90625 C 8.476562 -7.90625 8.148438 -8 7.859375 -8.1875 C 7.578125 -8.375 7.414062 -8.695312 7.375 -9.15625 C 6.96875 -9.15625 6.550781 -8.921875 6.125 -8.453125 C 5.695312 -7.984375 5.410156 -7.515625 5.265625 -7.046875 L 5.265625 -3.5 C 5.265625 -2.800781 5.238281 -2.164062 5.1875 -1.59375 C 5.644531 -1.632812 6.113281 -1.65625 6.59375 -1.65625 L 6.59375 0 L 0.890625 0 Z M 0.890625 -1.421875 "/></g></g></g><g fill="#000000" fill-opacity="1"><g transform="translate(247.474535, 194.202014)"><g><path d="M 2.5625 0.34375 C 2.101562 0.34375 1.71875 0.179688 1.40625 -0.140625 C 1.101562 -0.460938 0.953125 -0.863281 0.953125 -1.34375 C 0.953125 -1.8125 1.113281 -2.210938 1.4375 -2.546875 C 1.757812 -2.878906 2.128906 -3.046875 2.546875 -3.046875 C 2.992188 -3.046875 3.363281 -2.878906 3.65625 -2.546875 C 3.957031 -2.210938 4.109375 -1.8125 4.109375 -1.34375 C 4.109375 -0.863281 3.96875 -0.460938 3.6875 -0.140625 C 3.40625 0.179688 3.03125 0.34375 2.5625 0.34375 Z M 2.5625 0.34375 "/></g></g></g><g fill="#000000" fill-opacity="1"><g transform="translate(252.545, 194.202014)"><g><path d="M 6.03125 0.34375 C 5.039062 0.34375 4.140625 0.125 3.328125 -0.3125 C 2.515625 -0.757812 1.867188 -1.398438 1.390625 -2.234375 C 0.910156 -3.066406 0.671875 -4.054688 0.671875 -5.203125 C 0.671875 -6.285156 0.910156 -7.285156 1.390625 -8.203125 C 1.867188 -9.128906 2.539062 -9.863281 3.40625 -10.40625 C 4.269531 -10.957031 5.242188 -11.234375 6.328125 -11.234375 C 7.210938 -11.234375 7.972656 -11.09375 8.609375 -10.8125 C 9.242188 -10.539062 9.71875 -10.175781 10.03125 -9.71875 C 10.351562 -9.257812 10.515625 -8.769531 10.515625 -8.25 C 10.515625 -7.800781 10.378906 -7.414062 10.109375 -7.09375 C 9.835938 -6.769531 9.472656 -6.609375 9.015625 -6.609375 C 8.535156 -6.609375 8.175781 -6.753906 7.9375 -7.046875 C 7.695312 -7.335938 7.578125 -7.664062 7.578125 -8.03125 C 7.578125 -8.363281 7.660156 -8.679688 7.828125 -8.984375 C 7.703125 -9.242188 7.492188 -9.425781 7.203125 -9.53125 C 6.910156 -9.644531 6.617188 -9.703125 6.328125 -9.703125 C 5.585938 -9.703125 4.988281 -9.363281 4.53125 -8.6875 C 4.082031 -8.019531 3.859375 -7.066406 3.859375 -5.828125 C 3.859375 -4.597656 4.097656 -3.582031 4.578125 -2.78125 C 5.054688 -1.988281 5.804688 -1.59375 6.828125 -1.59375 C 7.410156 -1.59375 7.984375 -1.742188 8.546875 -2.046875 C 9.117188 -2.347656 9.597656 -2.753906 9.984375 -3.265625 L 10.984375 -2.28125 C 10.265625 -1.28125 9.488281 -0.59375 8.65625 -0.21875 C 7.832031 0.15625 6.957031 0.34375 6.03125 0.34375 Z M 6.03125 0.34375 "/></g></g></g><g fill="#000000" fill-opacity="1"><g transform="translate(263.817533, 194.202014)"><g><path d="M 6.21875 0.34375 C 5.164062 0.34375 4.21875 0.117188 3.375 -0.328125 C 2.53125 -0.773438 1.867188 -1.421875 1.390625 -2.265625 C 0.910156 -3.109375 0.671875 -4.085938 0.671875 -5.203125 C 0.671875 -6.378906 0.914062 -7.421875 1.40625 -8.328125 C 1.90625 -9.242188 2.570312 -9.957031 3.40625 -10.46875 C 4.238281 -10.976562 5.15625 -11.234375 6.15625 -11.234375 C 7.207031 -11.234375 8.144531 -11.003906 8.96875 -10.546875 C 9.789062 -10.097656 10.441406 -9.445312 10.921875 -8.59375 C 11.398438 -7.75 11.640625 -6.765625 11.640625 -5.640625 C 11.640625 -4.429688 11.410156 -3.375 10.953125 -2.46875 C 10.492188 -1.570312 9.851562 -0.878906 9.03125 -0.390625 C 8.21875 0.0976562 7.28125 0.34375 6.21875 0.34375 Z M 6.265625 -1.203125 C 7.066406 -1.203125 7.625 -1.570312 7.9375 -2.3125 C 8.257812 -3.050781 8.421875 -3.976562 8.421875 -5.09375 C 8.421875 -6.34375 8.238281 -7.421875 7.875 -8.328125 C 7.507812 -9.242188 6.9375 -9.703125 6.15625 -9.703125 C 5.363281 -9.703125 4.785156 -9.320312 4.421875 -8.5625 C 4.054688 -7.8125 3.875 -6.890625 3.875 -5.796875 C 3.875 -4.523438 4.066406 -3.441406 4.453125 -2.546875 C 4.847656 -1.648438 5.453125 -1.203125 6.265625 -1.203125 Z M 6.265625 -1.203125 "/></g></g></g><g fill="#000000" fill-opacity="1"><g transform="translate(276.134625, 194.202014)"><g><path d="M 0.890625 -1.421875 C 1.441406 -1.421875 1.789062 -1.570312 1.9375 -1.875 C 2.09375 -2.175781 2.171875 -2.671875 2.171875 -3.359375 L 2.171875 -7.015625 C 2.171875 -7.660156 2.203125 -8.273438 2.265625 -8.859375 L 0.734375 -8.796875 L 0.734375 -10.453125 C 1.648438 -10.453125 2.390625 -10.515625 2.953125 -10.640625 C 3.523438 -10.773438 3.90625 -10.925781 4.09375 -11.09375 L 5.15625 -11.09375 C 5.15625 -11.070312 5.1875 -10.710938 5.25 -10.015625 L 5.296875 -10.015625 C 5.742188 -10.378906 6.25 -10.671875 6.8125 -10.890625 C 7.375 -11.117188 7.925781 -11.234375 8.46875 -11.234375 C 9.125 -11.234375 9.671875 -11.113281 10.109375 -10.875 C 10.554688 -10.632812 10.910156 -10.273438 11.171875 -9.796875 C 11.691406 -10.234375 12.269531 -10.582031 12.90625 -10.84375 C 13.539062 -11.101562 14.144531 -11.234375 14.71875 -11.234375 C 15.914062 -11.234375 16.804688 -10.882812 17.390625 -10.1875 C 17.984375 -9.488281 18.28125 -8.328125 18.28125 -6.703125 L 18.28125 -3.5 C 18.28125 -2.800781 18.253906 -2.164062 18.203125 -1.59375 C 18.660156 -1.632812 19.128906 -1.65625 19.609375 -1.65625 L 19.609375 0 L 14.109375 0 L 14.109375 -1.421875 C 14.566406 -1.421875 14.859375 -1.570312 14.984375 -1.875 C 15.117188 -2.1875 15.1875 -2.679688 15.1875 -3.359375 L 15.1875 -6.6875 C 15.175781 -7.59375 15.023438 -8.238281 14.734375 -8.625 C 14.441406 -9.007812 14.019531 -9.203125 13.46875 -9.203125 C 12.832031 -9.203125 12.207031 -8.960938 11.59375 -8.484375 C 11.726562 -7.910156 11.796875 -7.222656 11.796875 -6.421875 L 11.796875 -3.5 C 11.796875 -2.800781 11.765625 -2.164062 11.703125 -1.59375 C 12.171875 -1.632812 12.644531 -1.65625 13.125 -1.65625 L 13.125 0 L 7.515625 0 L 7.515625 -1.421875 C 8.015625 -1.421875 8.335938 -1.570312 8.484375 -1.875 C 8.628906 -2.175781 8.703125 -2.671875 8.703125 -3.359375 L 8.6875 -6.75 C 8.6875 -7.644531 8.554688 -8.273438 8.296875 -8.640625 C 8.035156 -9.015625 7.644531 -9.210938 7.125 -9.234375 C 6.476562 -9.234375 5.859375 -8.960938 5.265625 -8.421875 L 5.265625 -3.5 C 5.265625 -2.800781 5.238281 -2.164062 5.1875 -1.59375 C 5.644531 -1.632812 6.078125 -1.65625 6.484375 -1.65625 L 6.484375 0 L 0.890625 0 Z M 0.890625 -1.421875 "/></g></g></g><g fill="#000000" fill-opacity="1"><g transform="translate(97.001356, 153.168943)"><g><path d="M -0.609375 -0.984375 C -0.523438 -1.222656 -0.484375 -1.410156 -0.484375 -1.546875 C -0.484375 -1.691406 -0.546875 -1.828125 -0.671875 -1.953125 C -0.804688 -2.085938 -1.046875 -2.21875 -1.390625 -2.34375 L -6.390625 -4.28125 C -6.878906 -4.46875 -7.265625 -4.640625 -7.546875 -4.796875 L -7.890625 -3.796875 L -8.890625 -4.171875 L -7.4375 -7.921875 L -6.578125 -7.59375 C -6.660156 -7.351562 -6.703125 -7.160156 -6.703125 -7.015625 C -6.703125 -6.878906 -6.632812 -6.742188 -6.5 -6.609375 C -6.375 -6.484375 -6.140625 -6.351562 -5.796875 -6.21875 L -3.8125 -5.453125 L -3.453125 -6.40625 L -4.765625 -8.0625 C -5.347656 -8.769531 -5.671875 -9.238281 -5.734375 -9.46875 L -5.75 -9.46875 C -5.8125 -9.257812 -5.867188 -9.082031 -5.921875 -8.9375 C -5.972656 -8.800781 -6.007812 -8.695312 -6.03125 -8.625 L -7.03125 -9 L -5.796875 -12.203125 L -4.9375 -11.875 C -5.0625 -11.5 -5.097656 -11.113281 -5.046875 -10.71875 C -5.003906 -10.320312 -4.785156 -9.863281 -4.390625 -9.34375 L -2.859375 -7.3125 L -2.84375 -7.3125 C -2.507812 -7.5625 -2.148438 -7.734375 -1.765625 -7.828125 L 0.640625 -8.453125 C 1.804688 -8.742188 2.5 -9.128906 2.71875 -9.609375 L 3.578125 -9.28125 L 2.796875 -7.28125 C 2.753906 -7.175781 2.523438 -7.039062 2.109375 -6.875 C 1.703125 -6.71875 1.328125 -6.597656 0.984375 -6.515625 L -1.390625 -5.9375 C -1.617188 -5.882812 -1.847656 -5.820312 -2.078125 -5.75 C -2.304688 -5.675781 -2.476562 -5.601562 -2.59375 -5.53125 L -2.765625 -5.046875 L -0.796875 -4.296875 C -0.316406 -4.109375 0.0625 -3.941406 0.34375 -3.796875 C 0.4375 -4.078125 0.554688 -4.410156 0.703125 -4.796875 L 1.703125 -4.40625 L 0.25 -0.65625 Z M -0.609375 -0.984375 "/></g></g></g><g fill="#000000" fill-opacity="1"><g transform="translate(104.641723, 135.892053)"><g><path d="M -0.78125 -0.5625 C -0.65625 -0.769531 -0.609375 -0.976562 -0.640625 -1.1875 C -0.671875 -1.40625 -0.742188 -1.601562 -0.859375 -1.78125 C -0.972656 -1.96875 -1.15625 -2.226562 -1.40625 -2.5625 L -6.25 -8.875 L -5.71875 -9.703125 L 2.296875 -8.125 C 2.492188 -8.09375 2.734375 -8.035156 3.015625 -7.953125 C 3.296875 -7.867188 3.519531 -7.785156 3.6875 -7.703125 C 3.832031 -7.984375 3.96875 -8.222656 4.09375 -8.421875 L 5 -7.84375 L 2.96875 -4.671875 L 2.1875 -5.171875 C 2.425781 -5.546875 2.390625 -5.832031 2.078125 -6.03125 C 1.921875 -6.132812 1.707031 -6.207031 1.4375 -6.25 L 0.625 -6.421875 L -0.953125 -3.859375 L -0.53125 -3.296875 C -0.46875 -3.234375 -0.351562 -3.085938 -0.1875 -2.859375 C -0.0195312 -2.640625 0.109375 -2.457031 0.203125 -2.3125 C 0.328125 -2.582031 0.488281 -2.867188 0.6875 -3.171875 L 1.640625 -2.5625 L 0.03125 -0.046875 Z M -0.40625 -6.6875 L -2.21875 -7.078125 C -3.007812 -7.253906 -3.644531 -7.445312 -4.125 -7.65625 C -3.644531 -7.15625 -3.222656 -6.671875 -2.859375 -6.203125 L -1.65625 -4.703125 Z M -0.40625 -6.6875 "/></g></g></g><g fill="#000000" fill-opacity="1"><g transform="translate(115.183008, 120.953973)"><g><path d="M -0.1875 -1.140625 C -0.0078125 -1.335938 0.0976562 -1.5 0.140625 -1.625 C 0.191406 -1.75 0.179688 -1.894531 0.109375 -2.0625 C 0.046875 -2.238281 -0.113281 -2.453125 -0.375 -2.703125 L -4.25 -6.40625 C -4.625 -6.769531 -4.914062 -7.078125 -5.125 -7.328125 L -5.8125 -6.53125 L -6.59375 -7.28125 L -3.859375 -10.171875 C -2.984375 -11.109375 -2.132812 -11.664062 -1.3125 -11.84375 C -0.5 -12.03125 0.269531 -11.769531 1 -11.0625 C 1.46875 -10.613281 1.734375 -10.066406 1.796875 -9.421875 C 1.867188 -8.785156 1.710938 -8.085938 1.328125 -7.328125 C 1.492188 -7.398438 1.695312 -7.441406 1.9375 -7.453125 C 2.1875 -7.472656 2.421875 -7.460938 2.640625 -7.421875 L 3.8125 -7.203125 C 4.382812 -7.085938 4.8125 -7.046875 5.09375 -7.078125 C 5.375 -7.109375 5.617188 -7.226562 5.828125 -7.4375 L 6.5 -6.796875 L 4.90625 -5.125 C 4.71875 -5.09375 4.492188 -5.085938 4.234375 -5.109375 C 3.972656 -5.140625 3.644531 -5.203125 3.25 -5.296875 L 1.3125 -5.71875 C 0.882812 -5.8125 0.554688 -5.859375 0.328125 -5.859375 L -0.171875 -5.328125 L 0.90625 -4.28125 C 1.289062 -3.914062 1.585938 -3.613281 1.796875 -3.375 C 1.972656 -3.601562 2.234375 -3.898438 2.578125 -4.265625 L 3.359375 -3.515625 L 0.484375 -0.5 Z M -0.4375 -6.5 C 0.101562 -7.050781 0.363281 -7.566406 0.34375 -8.046875 C 0.332031 -8.535156 0.0625 -9.03125 -0.46875 -9.53125 C -1.019531 -10.0625 -1.523438 -10.269531 -1.984375 -10.15625 C -2.441406 -10.050781 -2.835938 -9.828125 -3.171875 -9.484375 C -3.390625 -9.253906 -3.5 -9.035156 -3.5 -8.828125 C -3.5 -8.617188 -3.332031 -8.351562 -3 -8.03125 L -0.9375 -6.0625 C -0.71875 -6.226562 -0.550781 -6.375 -0.4375 -6.5 Z M -0.4375 -6.5 "/></g></g></g><g fill="#000000" fill-opacity="1"><g transform="translate(128.487005, 108.153151)"><g><path d="M 0.703125 -5.84375 C 0.398438 -6.03125 0.0078125 -6.316406 -0.46875 -6.703125 C -0.957031 -7.085938 -1.425781 -7.492188 -1.875 -7.921875 L -1.875 -7.90625 C -1.382812 -7.226562 -0.945312 -6.597656 -0.5625 -6.015625 L -0.28125 -5.609375 L 1.09375 -3.484375 C 1.425781 -3.003906 1.640625 -2.644531 1.734375 -2.40625 C 1.984375 -2.59375 2.273438 -2.796875 2.609375 -3.015625 L 3.203125 -2.125 L 0.546875 -0.359375 L 0.03125 -1.125 C 0.238281 -1.28125 0.378906 -1.410156 0.453125 -1.515625 C 0.535156 -1.628906 0.5625 -1.78125 0.53125 -1.96875 C 0.5 -2.15625 0.382812 -2.398438 0.1875 -2.703125 L -2.71875 -7.203125 C -3.082031 -7.785156 -3.296875 -8.148438 -3.359375 -8.296875 L -4.21875 -7.65625 L -4.828125 -8.5625 L -2.234375 -10.28125 L 2.53125 -6.9375 C 2.84375 -6.71875 3.1875 -6.46875 3.5625 -6.1875 C 3.945312 -5.914062 4.226562 -5.703125 4.40625 -5.546875 L 4.40625 -5.5625 C 4.382812 -5.644531 4.3125 -5.9375 4.1875 -6.4375 C 4.082031 -6.820312 3.992188 -7.160156 3.921875 -7.453125 L 2.53125 -13.46875 L 5.21875 -15.265625 L 5.734375 -14.5 C 5.535156 -14.34375 5.390625 -14.203125 5.296875 -14.078125 C 5.210938 -13.960938 5.179688 -13.8125 5.203125 -13.625 C 5.234375 -13.445312 5.351562 -13.210938 5.5625 -12.921875 L 8.71875 -8.5625 C 9.007812 -8.1875 9.226562 -7.828125 9.375 -7.484375 C 9.625 -7.679688 9.910156 -7.890625 10.234375 -8.109375 L 10.828125 -7.21875 L 7.59375 -5.0625 L 7.078125 -5.828125 C 7.285156 -5.972656 7.429688 -6.101562 7.515625 -6.21875 C 7.597656 -6.34375 7.625 -6.492188 7.59375 -6.671875 C 7.5625 -6.859375 7.441406 -7.097656 7.234375 -7.390625 L 5.5 -9.796875 L 5.1875 -10.21875 C 4.644531 -10.957031 4.269531 -11.46875 4.0625 -11.75 L 5.921875 -3.78125 L 4.84375 -3.0625 Z M 0.703125 -5.84375 "/></g></g></g><g fill="#000000" fill-opacity="1"><g transform="translate(147.792833, 96.722228)"><g><path d="M -0.28125 -0.921875 C -0.0625 -1.015625 0.09375 -1.15625 0.1875 -1.34375 C 0.289062 -1.53125 0.347656 -1.726562 0.359375 -1.9375 C 0.378906 -2.15625 0.390625 -2.476562 0.390625 -2.90625 L 0.203125 -10.859375 L 1.125 -11.203125 L 6.671875 -5.1875 C 6.796875 -5.039062 6.945312 -4.851562 7.125 -4.625 C 7.3125 -4.394531 7.445312 -4.195312 7.53125 -4.03125 C 7.8125 -4.164062 8.0625 -4.273438 8.28125 -4.359375 L 8.671875 -3.359375 L 5.15625 -2 L 4.828125 -2.859375 C 5.242188 -3.023438 5.382812 -3.285156 5.25 -3.640625 C 5.175781 -3.804688 5.046875 -3.992188 4.859375 -4.203125 L 4.3125 -4.796875 L 1.5 -3.671875 L 1.53125 -2.96875 C 1.539062 -2.882812 1.546875 -2.703125 1.546875 -2.421875 C 1.554688 -2.140625 1.550781 -1.914062 1.53125 -1.75 C 1.789062 -1.882812 2.09375 -2.019531 2.4375 -2.15625 L 2.84375 -1.109375 L 0.0625 -0.015625 Z M 3.625 -5.625 L 2.40625 -7.015625 C 1.875 -7.617188 1.472656 -8.148438 1.203125 -8.609375 C 1.304688 -7.921875 1.363281 -7.28125 1.375 -6.6875 L 1.453125 -4.765625 Z M 3.625 -5.625 "/></g></g></g><g fill="#000000" fill-opacity="1"><g transform="translate(177.773678, 88.81411)"><g><path d="M 3.765625 -4.53125 C 3.609375 -4.84375 3.429688 -5.289062 3.234375 -5.875 C 3.035156 -6.46875 2.867188 -7.066406 2.734375 -7.671875 L 2.71875 -7.671875 C 2.757812 -6.828125 2.785156 -6.054688 2.796875 -5.359375 L 2.796875 -4.875 L 2.828125 -2.34375 C 2.835938 -1.757812 2.816406 -1.335938 2.765625 -1.078125 C 3.078125 -1.109375 3.429688 -1.128906 3.828125 -1.140625 L 3.84375 -0.0625 L 0.65625 -0.015625 L 0.640625 -0.9375 C 0.890625 -0.945312 1.078125 -0.976562 1.203125 -1.03125 C 1.335938 -1.082031 1.441406 -1.191406 1.515625 -1.359375 C 1.597656 -1.535156 1.632812 -1.804688 1.625 -2.171875 L 1.625 -7.53125 C 1.632812 -8.21875 1.648438 -8.640625 1.671875 -8.796875 L 0.609375 -8.734375 L 0.59375 -9.8125 L 3.703125 -9.859375 L 5.890625 -4.46875 C 6.023438 -4.113281 6.175781 -3.710938 6.34375 -3.265625 C 6.519531 -2.828125 6.640625 -2.492188 6.703125 -2.265625 L 6.71875 -2.265625 C 6.75 -2.359375 6.847656 -2.648438 7.015625 -3.140625 C 7.140625 -3.523438 7.25 -3.851562 7.34375 -4.125 L 9.4375 -9.9375 L 12.671875 -9.984375 L 12.6875 -9.0625 C 12.4375 -9.050781 12.238281 -9.015625 12.09375 -8.953125 C 11.957031 -8.898438 11.847656 -8.789062 11.765625 -8.625 C 11.691406 -8.457031 11.664062 -8.191406 11.6875 -7.828125 L 11.984375 -2.46875 C 12.015625 -1.988281 12 -1.566406 11.9375 -1.203125 C 12.25 -1.242188 12.601562 -1.265625 13 -1.265625 L 13.015625 -0.1875 L 9.125 -0.140625 L 9.109375 -1.0625 C 9.359375 -1.070312 9.550781 -1.101562 9.6875 -1.15625 C 9.820312 -1.207031 9.925781 -1.316406 10 -1.484375 C 10.082031 -1.648438 10.113281 -1.914062 10.09375 -2.28125 L 9.9375 -5.25 L 9.90625 -5.78125 C 9.832031 -6.6875 9.789062 -7.316406 9.78125 -7.671875 L 7.015625 0.03125 L 5.71875 0.0625 Z M 3.765625 -4.53125 "/></g></g></g><g fill="#000000" fill-opacity="1"><g transform="translate(200.193073, 89.680589)"><g><path d="M 0.265625 -0.9375 C 0.492188 -0.894531 0.703125 -0.921875 0.890625 -1.015625 C 1.078125 -1.117188 1.234375 -1.257812 1.359375 -1.4375 C 1.492188 -1.613281 1.671875 -1.878906 1.890625 -2.234375 L 6.078125 -9.015625 L 7.03125 -8.8125 L 8.40625 -0.75 C 8.445312 -0.539062 8.476562 -0.289062 8.5 0 C 8.53125 0.28125 8.535156 0.507812 8.515625 0.6875 C 8.828125 0.726562 9.097656 0.769531 9.328125 0.8125 L 9.109375 1.875 L 5.421875 1.109375 L 5.609375 0.203125 C 6.046875 0.296875 6.300781 0.160156 6.375 -0.203125 C 6.414062 -0.390625 6.410156 -0.617188 6.359375 -0.890625 L 6.234375 -1.703125 L 3.25 -2.265625 L 2.90625 -1.671875 C 2.863281 -1.585938 2.765625 -1.425781 2.609375 -1.1875 C 2.460938 -0.957031 2.335938 -0.773438 2.234375 -0.640625 C 2.535156 -0.617188 2.863281 -0.570312 3.21875 -0.5 L 2.984375 0.609375 L 0.0625 0.015625 Z M 6.109375 -2.75 L 5.828125 -4.59375 C 5.710938 -5.394531 5.660156 -6.054688 5.671875 -6.578125 C 5.390625 -5.941406 5.09375 -5.367188 4.78125 -4.859375 L 3.8125 -3.21875 Z M 6.109375 -2.75 "/></g></g></g><g fill="#000000" fill-opacity="1"><g transform="translate(217.893527, 94.17569)"><g><path d="M 5.59375 -3.6875 C 5.488281 -4.050781 5.382812 -4.472656 5.28125 -4.953125 L 3.578125 -0.953125 C 3.367188 -0.472656 3.1875 -0.0976562 3.03125 0.171875 C 3.3125 0.265625 3.640625 0.394531 4.015625 0.5625 L 3.59375 1.546875 L 0.65625 0.28125 L 1.015625 -0.5625 C 1.253906 -0.46875 1.441406 -0.414062 1.578125 -0.40625 C 1.722656 -0.40625 1.859375 -0.46875 1.984375 -0.59375 C 2.117188 -0.726562 2.257812 -0.960938 2.40625 -1.296875 L 4.515625 -6.21875 C 4.753906 -6.789062 4.9375 -7.171875 5.0625 -7.359375 L 4.0625 -7.75 L 4.484375 -8.734375 L 6.515625 -7.859375 L 8.3125 -1.203125 C 8.46875 -0.578125 8.59375 -0.0390625 8.6875 0.40625 L 10.453125 -3.671875 C 10.691406 -4.222656 10.867188 -4.601562 10.984375 -4.8125 L 10.015625 -5.1875 L 10.4375 -6.171875 L 13.359375 -4.921875 L 13 -4.078125 C 12.757812 -4.160156 12.566406 -4.203125 12.421875 -4.203125 C 12.285156 -4.210938 12.148438 -4.15625 12.015625 -4.03125 C 11.890625 -3.90625 11.753906 -3.675781 11.609375 -3.34375 L 8.515625 3.8125 L 7.421875 3.34375 Z M 5.59375 -3.6875 "/></g></g></g><g fill="#000000" fill-opacity="1"><g transform="translate(235.598426, 102.863229)"><g><path d="M 0.609375 -0.765625 C 0.804688 -0.628906 1.007812 -0.570312 1.21875 -0.59375 C 1.4375 -0.613281 1.640625 -0.675781 1.828125 -0.78125 C 2.015625 -0.882812 2.28125 -1.050781 2.625 -1.28125 L 9.125 -5.875 L 9.9375 -5.3125 L 8.03125 2.65625 C 7.96875 2.851562 7.890625 3.085938 7.796875 3.359375 C 7.710938 3.628906 7.628906 3.847656 7.546875 4.015625 C 7.828125 4.160156 8.0625 4.300781 8.25 4.4375 L 7.625 5.328125 L 4.53125 3.171875 L 5.0625 2.421875 C 5.425781 2.671875 5.710938 2.640625 5.921875 2.328125 C 6.035156 2.171875 6.125 1.960938 6.1875 1.703125 L 6.390625 0.90625 L 3.875 -0.796875 L 3.3125 -0.375 C 3.257812 -0.332031 3.113281 -0.226562 2.875 -0.0625 C 2.644531 0.09375 2.457031 0.210938 2.3125 0.296875 C 2.5625 0.441406 2.835938 0.617188 3.140625 0.828125 L 2.5 1.75 L 0.046875 0.03125 Z M 6.6875 -0.109375 L 7.171875 -1.921875 C 7.390625 -2.691406 7.601562 -3.316406 7.8125 -3.796875 C 7.300781 -3.328125 6.800781 -2.921875 6.3125 -2.578125 L 4.765625 -1.453125 Z M 6.6875 -0.109375 "/></g></g></g><g fill="#000000" fill-opacity="1"><g transform="translate(250.075483, 114.002481)"><g><path d="M 3.46875 3.984375 C 2.789062 3.265625 2.363281 2.492188 2.1875 1.671875 C 2.007812 0.847656 2.0625 0.0390625 2.34375 -0.75 C 2.625 -1.539062 3.109375 -2.265625 3.796875 -2.921875 C 4.441406 -3.523438 5.179688 -3.96875 6.015625 -4.25 C 6.859375 -4.539062 7.71875 -4.59375 8.59375 -4.40625 C 9.46875 -4.226562 10.257812 -3.765625 10.96875 -3.015625 C 11.25 -2.722656 11.515625 -2.347656 11.765625 -1.890625 C 12.023438 -1.429688 12.203125 -1.003906 12.296875 -0.609375 L 12.3125 -0.59375 L 12.703125 -1.03125 L 13.4375 -0.25 L 11.0625 2 L 10.4375 1.328125 C 10.90625 0.722656 11.125 0.113281 11.09375 -0.5 C 11.0625 -1.113281 10.816406 -1.671875 10.359375 -2.171875 C 9.941406 -2.617188 9.445312 -2.867188 8.875 -2.921875 C 8.3125 -2.984375 7.734375 -2.882812 7.140625 -2.625 C 6.554688 -2.363281 6.007812 -1.992188 5.5 -1.515625 C 4.59375 -0.660156 4.039062 0.210938 3.84375 1.109375 C 3.644531 2.015625 3.863281 2.796875 4.5 3.453125 C 4.707031 3.679688 4.96875 3.910156 5.28125 4.140625 C 5.59375 4.378906 5.878906 4.546875 6.140625 4.640625 L 7.078125 3.75 C 7.453125 3.394531 7.769531 3.113281 8.03125 2.90625 C 7.851562 2.75 7.6875 2.59375 7.53125 2.4375 L 7.28125 2.171875 L 8.0625 1.4375 L 10.625 4.140625 L 9.953125 4.78125 C 9.785156 4.613281 9.632812 4.503906 9.5 4.453125 C 9.375 4.398438 9.222656 4.40625 9.046875 4.46875 C 8.878906 4.539062 8.671875 4.691406 8.421875 4.921875 L 6.796875 6.46875 L 6.5625 6.234375 C 6.414062 6.078125 6.253906 5.9375 6.078125 5.8125 C 5.898438 5.695312 5.664062 5.554688 5.375 5.390625 C 4.9375 5.128906 4.578125 4.90625 4.296875 4.71875 C 4.023438 4.53125 3.75 4.285156 3.46875 3.984375 Z M 3.46875 3.984375 "/></g></g></g><g fill="#000000" fill-opacity="1"><g transform="translate(262.749932, 128.786716)"><g><path d="M 1.15625 0.109375 C 1.300781 0.304688 1.425781 0.445312 1.53125 0.53125 C 1.644531 0.625 1.789062 0.65625 1.96875 0.625 C 2.144531 0.601562 2.390625 0.492188 2.703125 0.296875 L 7.25 -2.546875 C 7.6875 -2.828125 8.050781 -3.035156 8.34375 -3.171875 L 7.765625 -4.03125 L 8.671875 -4.609375 L 12.390625 1.328125 L 10.140625 2.828125 L 9.640625 2.046875 C 10.234375 1.679688 10.550781 1.285156 10.59375 0.859375 C 10.644531 0.441406 10.539062 0.0390625 10.28125 -0.34375 L 9.984375 -0.78125 C 9.859375 -0.945312 9.738281 -1.070312 9.625 -1.15625 C 9.519531 -1.238281 9.367188 -1.265625 9.171875 -1.234375 C 8.984375 -1.203125 8.742188 -1.09375 8.453125 -0.90625 L 6.6875 0.203125 L 7.5625 1.59375 C 7.6875 1.5 8.023438 1.265625 8.578125 0.890625 L 9.140625 1.8125 L 6.25 3.625 L 5.75 2.828125 C 6.070312 2.628906 6.273438 2.429688 6.359375 2.234375 C 6.453125 2.046875 6.472656 1.859375 6.421875 1.671875 C 6.367188 1.492188 6.253906 1.273438 6.078125 1.015625 L 5.859375 0.71875 L 3.921875 1.9375 C 3.492188 2.195312 3.140625 2.398438 2.859375 2.546875 L 3.859375 4.140625 C 4.109375 4.546875 4.453125 4.800781 4.890625 4.90625 C 5.335938 5.007812 5.859375 4.875 6.453125 4.5 L 6.9375 5.265625 L 4.296875 6.859375 L 0.375 0.59375 Z M 1.15625 0.109375 "/></g></g></g><g fill="#000000" fill-opacity="1"><g transform="translate(271.432804, 144.191869)"><g><path d="M 1.109375 0.328125 C 1.210938 0.554688 1.3125 0.722656 1.40625 0.828125 C 1.5 0.929688 1.632812 0.988281 1.8125 1 C 2 1.007812 2.265625 0.945312 2.609375 0.8125 L 7.609375 -1.109375 C 8.097656 -1.296875 8.5 -1.425781 8.8125 -1.5 L 8.390625 -2.46875 L 9.390625 -2.84375 L 10.84375 0.84375 C 11.3125 2.039062 11.457031 3.046875 11.28125 3.859375 C 11.101562 4.671875 10.539062 5.257812 9.59375 5.625 C 8.988281 5.851562 8.375 5.863281 7.75 5.65625 C 7.132812 5.445312 6.570312 5.007812 6.0625 4.34375 C 6.050781 4.519531 6 4.71875 5.90625 4.9375 C 5.820312 5.15625 5.710938 5.363281 5.578125 5.5625 L 4.90625 6.53125 C 4.550781 7 4.320312 7.363281 4.21875 7.625 C 4.125 7.894531 4.125 8.171875 4.21875 8.453125 L 3.359375 8.78125 L 2.53125 6.625 C 2.582031 6.4375 2.675781 6.234375 2.8125 6.015625 C 2.957031 5.796875 3.148438 5.523438 3.390625 5.203125 L 4.609375 3.640625 C 4.867188 3.273438 5.050781 2.992188 5.15625 2.796875 L 4.890625 2.109375 L 3.484375 2.640625 C 2.992188 2.828125 2.59375 2.960938 2.28125 3.046875 C 2.40625 3.316406 2.554688 3.679688 2.734375 4.140625 L 1.734375 4.53125 L 0.25 0.65625 Z M 6.078125 2.375 C 6.347656 3.09375 6.703125 3.546875 7.140625 3.734375 C 7.578125 3.929688 8.140625 3.898438 8.828125 3.640625 C 9.546875 3.367188 9.953125 3 10.046875 2.53125 C 10.140625 2.070312 10.101562 1.617188 9.9375 1.171875 C 9.820312 0.867188 9.664062 0.671875 9.46875 0.578125 C 9.28125 0.492188 8.972656 0.535156 8.546875 0.703125 L 5.875 1.71875 C 5.945312 2 6.015625 2.21875 6.078125 2.375 Z M 6.078125 2.375 "/></g></g></g><g fill="#000000" fill-opacity="1"><g transform="translate(88.896725, 227.34638)"><g><path d="M 0.921875 -0.28125 C 1.015625 -0.0625 1.15625 0.09375 1.34375 0.1875 C 1.53125 0.289062 1.734375 0.351562 1.953125 0.375 C 2.171875 0.394531 2.484375 0.40625 2.890625 0.40625 L 10.859375 0.28125 L 11.21875 1.1875 L 5.15625 6.703125 C 5 6.828125 4.804688 6.976562 4.578125 7.15625 C 4.347656 7.332031 4.15625 7.460938 4 7.546875 C 4.125 7.828125 4.226562 8.078125 4.3125 8.296875 L 3.3125 8.6875 L 1.96875 5.171875 L 2.828125 4.84375 C 2.992188 5.257812 3.253906 5.398438 3.609375 5.265625 C 3.785156 5.203125 3.972656 5.078125 4.171875 4.890625 L 4.796875 4.34375 L 3.65625 1.515625 L 2.96875 1.53125 C 2.875 1.550781 2.6875 1.5625 2.40625 1.5625 C 2.132812 1.5625 1.910156 1.550781 1.734375 1.53125 C 1.867188 1.789062 2.003906 2.09375 2.140625 2.4375 L 1.09375 2.84375 L 0.015625 0.0625 Z M 5.59375 3.65625 L 7 2.453125 C 7.613281 1.929688 8.148438 1.53125 8.609375 1.25 C 7.910156 1.34375 7.269531 1.394531 6.6875 1.40625 L 4.75 1.46875 Z M 5.59375 3.65625 "/></g></g></g><g fill="#000000" fill-opacity="1"><g transform="translate(96.973716, 245.671966)"><g><path d="M 6.6875 0.078125 C 6.800781 -0.273438 6.957031 -0.679688 7.15625 -1.140625 L 3.5 1.21875 C 3.0625 1.5 2.695312 1.707031 2.40625 1.84375 C 2.59375 2.082031 2.796875 2.375 3.015625 2.71875 L 2.109375 3.296875 L 0.390625 0.609375 L 1.171875 0.109375 C 1.316406 0.316406 1.441406 0.457031 1.546875 0.53125 C 1.660156 0.613281 1.804688 0.640625 1.984375 0.609375 C 2.171875 0.585938 2.414062 0.476562 2.71875 0.28125 L 7.234375 -2.609375 C 7.753906 -2.953125 8.117188 -3.164062 8.328125 -3.25 L 7.703125 -4.125 L 8.625 -4.703125 L 9.8125 -2.84375 L 7.546875 3.671875 C 7.328125 4.265625 7.128906 4.78125 6.953125 5.21875 L 10.703125 2.828125 C 11.203125 2.503906 11.566406 2.289062 11.796875 2.1875 L 11.1875 1.328125 L 12.109375 0.75 L 13.828125 3.4375 L 13.046875 3.921875 C 12.898438 3.722656 12.769531 3.582031 12.65625 3.5 C 12.539062 3.414062 12.394531 3.390625 12.21875 3.421875 C 12.039062 3.453125 11.796875 3.5625 11.484375 3.75 L 4.90625 7.953125 L 4.25 6.9375 Z M 6.6875 0.078125 "/></g></g></g><g fill="#000000" fill-opacity="1"><g transform="translate(109.495089, 263.130185)"><g><path d="M 0.734375 -0.625 C 0.898438 -0.457031 1.085938 -0.363281 1.296875 -0.34375 C 1.515625 -0.320312 1.726562 -0.347656 1.9375 -0.421875 C 2.144531 -0.503906 2.441406 -0.617188 2.828125 -0.765625 L 10.078125 -4.046875 L 10.765625 -3.34375 L 7.375 4.109375 C 7.289062 4.285156 7.175781 4.5 7.03125 4.75 C 6.894531 5.007812 6.769531 5.210938 6.65625 5.359375 C 6.882812 5.566406 7.082031 5.753906 7.25 5.921875 L 6.484375 6.671875 L 3.859375 3.96875 L 4.515625 3.328125 C 4.828125 3.648438 5.117188 3.679688 5.390625 3.421875 C 5.523438 3.285156 5.648438 3.085938 5.765625 2.828125 L 6.109375 2.109375 L 3.96875 -0.046875 L 3.34375 0.25 C 3.257812 0.289062 3.085938 0.363281 2.828125 0.46875 C 2.578125 0.582031 2.367188 0.671875 2.203125 0.734375 C 2.441406 0.921875 2.6875 1.144531 2.9375 1.40625 L 2.125 2.1875 L 0.046875 0.046875 Z M 6.59375 1.15625 L 7.390625 -0.53125 C 7.753906 -1.25 8.085938 -1.828125 8.390625 -2.265625 C 7.796875 -1.898438 7.226562 -1.59375 6.6875 -1.34375 L 4.953125 -0.53125 Z M 6.59375 1.15625 "/></g></g></g><g fill="#000000" fill-opacity="1"><g transform="translate(124.163763, 276.751769)"><g><path d="M 4.234375 3.15625 C 3.410156 2.59375 2.828125 1.925781 2.484375 1.15625 C 2.140625 0.394531 2.019531 -0.398438 2.125 -1.234375 C 2.226562 -2.066406 2.550781 -2.875 3.09375 -3.65625 C 3.582031 -4.382812 4.207031 -4.976562 4.96875 -5.4375 C 5.726562 -5.90625 6.554688 -6.140625 7.453125 -6.140625 C 8.347656 -6.148438 9.222656 -5.863281 10.078125 -5.28125 C 10.410156 -5.050781 10.75 -4.742188 11.09375 -4.359375 C 11.445312 -3.972656 11.707031 -3.59375 11.875 -3.21875 L 11.890625 -3.203125 L 12.1875 -3.71875 L 13.078125 -3.109375 L 11.25 -0.40625 L 10.484375 -0.921875 C 10.816406 -1.617188 10.898438 -2.265625 10.734375 -2.859375 C 10.566406 -3.453125 10.207031 -3.941406 9.65625 -4.328125 C 9.144531 -4.679688 8.609375 -4.820312 8.046875 -4.75 C 7.484375 -4.6875 6.941406 -4.460938 6.421875 -4.078125 C 5.898438 -3.703125 5.445312 -3.226562 5.0625 -2.65625 C 4.351562 -1.625 3.992188 -0.648438 3.984375 0.265625 C 3.984375 1.191406 4.363281 1.914062 5.125 2.4375 C 5.375 2.601562 5.675781 2.765625 6.03125 2.921875 C 6.394531 3.085938 6.71875 3.1875 7 3.21875 L 7.71875 2.140625 C 8.007812 1.710938 8.257812 1.375 8.46875 1.125 C 8.257812 1.007812 8.066406 0.890625 7.890625 0.765625 L 7.578125 0.578125 L 8.1875 -0.3125 L 11.265625 1.78125 L 10.75 2.546875 C 10.550781 2.421875 10.378906 2.347656 10.234375 2.328125 C 10.097656 2.304688 9.953125 2.34375 9.796875 2.4375 C 9.640625 2.539062 9.46875 2.734375 9.28125 3.015625 L 8.015625 4.875 L 7.75 4.703125 C 7.5625 4.578125 7.367188 4.472656 7.171875 4.390625 C 6.972656 4.304688 6.71875 4.21875 6.40625 4.125 C 5.914062 3.96875 5.515625 3.820312 5.203125 3.6875 C 4.898438 3.5625 4.578125 3.382812 4.234375 3.15625 Z M 4.234375 3.15625 "/></g></g></g><g fill="#000000" fill-opacity="1"><g transform="translate(142.322959, 287.731423)"><g><path d="M 1.015625 -0.578125 C 1.242188 -0.492188 1.425781 -0.453125 1.5625 -0.453125 C 1.707031 -0.453125 1.84375 -0.515625 1.96875 -0.640625 C 2.101562 -0.765625 2.242188 -1 2.390625 -1.34375 L 4.4375 -6.28125 C 4.632812 -6.757812 4.8125 -7.140625 4.96875 -7.421875 L 4 -7.78125 L 4.421875 -8.78125 L 8.078125 -7.28125 C 9.273438 -6.800781 10.101562 -6.210938 10.5625 -5.515625 C 11.03125 -4.828125 11.066406 -4.015625 10.671875 -3.078125 C 10.429688 -2.484375 10.023438 -2.03125 9.453125 -1.71875 C 8.878906 -1.414062 8.171875 -1.3125 7.328125 -1.40625 C 7.441406 -1.269531 7.550781 -1.09375 7.65625 -0.875 C 7.757812 -0.664062 7.832031 -0.441406 7.875 -0.203125 L 8.109375 0.953125 C 8.203125 1.515625 8.3125 1.925781 8.4375 2.1875 C 8.5625 2.445312 8.765625 2.640625 9.046875 2.765625 L 8.6875 3.609375 L 6.546875 2.71875 C 6.441406 2.550781 6.359375 2.34375 6.296875 2.09375 C 6.242188 1.84375 6.179688 1.515625 6.109375 1.109375 L 5.8125 -0.828125 C 5.738281 -1.273438 5.660156 -1.601562 5.578125 -1.8125 L 4.90625 -2.09375 L 4.328125 -0.71875 C 4.117188 -0.226562 3.9375 0.160156 3.78125 0.453125 C 4.0625 0.535156 4.429688 0.671875 4.890625 0.859375 L 4.484375 1.859375 L 0.65625 0.265625 Z M 5.890625 -2.75 C 6.609375 -2.457031 7.191406 -2.40625 7.640625 -2.59375 C 8.085938 -2.78125 8.445312 -3.210938 8.71875 -3.890625 C 9.019531 -4.597656 9.035156 -5.144531 8.765625 -5.53125 C 8.492188 -5.914062 8.132812 -6.203125 7.6875 -6.390625 C 7.394531 -6.515625 7.148438 -6.539062 6.953125 -6.46875 C 6.765625 -6.394531 6.582031 -6.144531 6.40625 -5.71875 L 5.3125 -3.078125 C 5.550781 -2.921875 5.742188 -2.8125 5.890625 -2.75 Z M 5.890625 -2.75 "/></g></g></g><g fill="#000000" fill-opacity="1"><g transform="translate(161.398361, 294.511175)"><g><path d="M 0.25 -0.9375 C 0.476562 -0.894531 0.6875 -0.925781 0.875 -1.03125 C 1.0625 -1.132812 1.222656 -1.273438 1.359375 -1.453125 C 1.492188 -1.628906 1.664062 -1.890625 1.875 -2.234375 L 6.015625 -9.046875 L 6.984375 -8.859375 L 8.40625 -0.796875 C 8.445312 -0.585938 8.476562 -0.335938 8.5 -0.046875 C 8.53125 0.234375 8.539062 0.460938 8.53125 0.640625 C 8.832031 0.671875 9.097656 0.707031 9.328125 0.75 L 9.125 1.8125 L 5.421875 1.078125 L 5.609375 0.171875 C 6.046875 0.265625 6.300781 0.128906 6.375 -0.234375 C 6.40625 -0.421875 6.398438 -0.648438 6.359375 -0.921875 L 6.234375 -1.734375 L 3.25 -2.28125 L 2.890625 -1.6875 C 2.847656 -1.601562 2.75 -1.441406 2.59375 -1.203125 C 2.445312 -0.972656 2.320312 -0.789062 2.21875 -0.65625 C 2.519531 -0.632812 2.847656 -0.585938 3.203125 -0.515625 L 2.984375 0.59375 L 0.0625 0.015625 Z M 6.078125 -2.78125 L 5.796875 -4.625 C 5.679688 -5.425781 5.628906 -6.09375 5.640625 -6.625 C 5.347656 -5.988281 5.050781 -5.414062 4.75 -4.90625 L 3.78125 -3.234375 Z M 6.078125 -2.78125 "/></g></g></g><g fill="#000000" fill-opacity="1"><g transform="translate(181.273196, 297.514696)"><g><path d="M 3.734375 -4.546875 C 3.578125 -4.867188 3.394531 -5.320312 3.1875 -5.90625 C 2.988281 -6.488281 2.820312 -7.082031 2.6875 -7.6875 L 2.671875 -7.6875 C 2.710938 -6.84375 2.742188 -6.070312 2.765625 -5.375 L 2.78125 -4.890625 L 2.8125 -2.359375 C 2.820312 -1.773438 2.804688 -1.351562 2.765625 -1.09375 C 3.078125 -1.125 3.429688 -1.144531 3.828125 -1.15625 L 3.84375 -0.078125 L 0.65625 -0.015625 L 0.640625 -0.9375 C 0.890625 -0.945312 1.078125 -0.976562 1.203125 -1.03125 C 1.335938 -1.09375 1.441406 -1.207031 1.515625 -1.375 C 1.585938 -1.539062 1.617188 -1.804688 1.609375 -2.171875 L 1.578125 -7.53125 C 1.585938 -8.21875 1.597656 -8.640625 1.609375 -8.796875 L 0.546875 -8.734375 L 0.53125 -9.8125 L 3.640625 -9.875 L 5.859375 -4.5 C 6.003906 -4.144531 6.160156 -3.75 6.328125 -3.3125 C 6.503906 -2.875 6.625 -2.539062 6.6875 -2.3125 L 6.703125 -2.3125 C 6.734375 -2.40625 6.832031 -2.691406 7 -3.171875 C 7.113281 -3.566406 7.222656 -3.898438 7.328125 -4.171875 L 9.375 -10 L 12.609375 -10.0625 L 12.625 -9.140625 C 12.375 -9.128906 12.175781 -9.09375 12.03125 -9.03125 C 11.894531 -8.976562 11.789062 -8.867188 11.71875 -8.703125 C 11.644531 -8.535156 11.617188 -8.269531 11.640625 -7.90625 L 11.96875 -2.546875 C 12 -2.066406 11.988281 -1.644531 11.9375 -1.28125 C 12.25 -1.320312 12.601562 -1.34375 13 -1.34375 L 13.015625 -0.265625 L 9.125 -0.1875 L 9.109375 -1.109375 C 9.359375 -1.128906 9.550781 -1.164062 9.6875 -1.21875 C 9.820312 -1.269531 9.925781 -1.378906 10 -1.546875 C 10.070312 -1.722656 10.097656 -1.992188 10.078125 -2.359375 L 9.90625 -5.3125 L 9.859375 -5.84375 C 9.796875 -6.75 9.753906 -7.378906 9.734375 -7.734375 L 7.015625 0 L 5.71875 0.015625 Z M 3.734375 -4.546875 "/></g></g></g><g fill="#000000" fill-opacity="1"><g transform="translate(205.376647, 295.545266)"><g/></g></g><g fill="#000000" fill-opacity="1"><g transform="translate(219.259021, 292.04439)"><g><path d="M 1.796875 -5.609375 C 1.535156 -5.847656 1.203125 -6.195312 0.796875 -6.65625 C 0.390625 -7.125 0.015625 -7.617188 -0.328125 -8.140625 L -0.34375 -8.125 C 0.0078125 -7.351562 0.320312 -6.644531 0.59375 -6 L 0.78125 -5.5625 L 1.75 -3.21875 C 1.976562 -2.6875 2.113281 -2.289062 2.15625 -2.03125 C 2.4375 -2.1875 2.757812 -2.335938 3.125 -2.484375 L 3.546875 -1.484375 L 0.609375 -0.25 L 0.25 -1.09375 C 0.476562 -1.207031 0.640625 -1.3125 0.734375 -1.40625 C 0.835938 -1.507812 0.890625 -1.648438 0.890625 -1.828125 C 0.898438 -2.015625 0.835938 -2.273438 0.703125 -2.609375 L -1.3125 -7.578125 C -1.5625 -8.222656 -1.707031 -8.625 -1.75 -8.78125 L -2.703125 -8.3125 L -3.125 -9.3125 L -0.25 -10.515625 L 3.78125 -6.34375 C 4.050781 -6.070312 4.347656 -5.757812 4.671875 -5.40625 C 4.992188 -5.0625 5.222656 -4.796875 5.359375 -4.609375 L 5.375 -4.625 C 5.375 -4.71875 5.363281 -5.019531 5.34375 -5.53125 C 5.300781 -5.9375 5.273438 -6.285156 5.265625 -6.578125 L 5.03125 -12.75 L 8.015625 -14 L 8.375 -13.15625 C 8.144531 -13.050781 7.972656 -12.941406 7.859375 -12.828125 C 7.753906 -12.722656 7.695312 -12.578125 7.6875 -12.390625 C 7.675781 -12.210938 7.75 -11.960938 7.90625 -11.640625 L 10.1875 -6.765625 C 10.394531 -6.335938 10.535156 -5.945312 10.609375 -5.59375 C 10.890625 -5.738281 11.210938 -5.890625 11.578125 -6.046875 L 12 -5.046875 L 8.40625 -3.53125 L 8.046875 -4.375 C 8.273438 -4.488281 8.441406 -4.597656 8.546875 -4.703125 C 8.648438 -4.804688 8.703125 -4.945312 8.703125 -5.125 C 8.710938 -5.3125 8.644531 -5.566406 8.5 -5.890625 L 7.25 -8.59375 L 7.015625 -9.078125 C 6.609375 -9.890625 6.332031 -10.453125 6.1875 -10.765625 L 6.515625 -2.59375 L 5.3125 -2.09375 Z M 1.796875 -5.609375 "/></g></g></g><g fill="#000000" fill-opacity="1"><g transform="translate(241.098504, 281.338786)"><g><path d="M -0.515625 -0.828125 C -0.316406 -0.972656 -0.191406 -1.148438 -0.140625 -1.359375 C -0.0859375 -1.566406 -0.078125 -1.773438 -0.109375 -1.984375 C -0.148438 -2.203125 -0.226562 -2.507812 -0.34375 -2.90625 L -2.4375 -10.59375 L -1.625 -11.15625 L 5.203125 -6.65625 C 5.378906 -6.539062 5.578125 -6.394531 5.796875 -6.21875 C 6.023438 -6.050781 6.203125 -5.894531 6.328125 -5.75 C 6.566406 -5.945312 6.78125 -6.113281 6.96875 -6.25 L 7.59375 -5.375 L 4.515625 -3.1875 L 3.984375 -3.9375 C 4.347656 -4.195312 4.421875 -4.484375 4.203125 -4.796875 C 4.097656 -4.941406 3.925781 -5.097656 3.6875 -5.265625 L 3.015625 -5.71875 L 0.578125 -3.921875 L 0.765625 -3.25 C 0.796875 -3.164062 0.84375 -2.988281 0.90625 -2.71875 C 0.96875 -2.457031 1.019531 -2.238281 1.0625 -2.0625 C 1.28125 -2.257812 1.535156 -2.46875 1.828125 -2.6875 L 2.484375 -1.765625 L 0.046875 -0.03125 Z M 2.15625 -6.328125 L 0.625 -7.390625 C -0.03125 -7.859375 -0.550781 -8.28125 -0.9375 -8.65625 C -0.664062 -8.007812 -0.453125 -7.398438 -0.296875 -6.828125 L 0.25 -4.984375 Z M 2.15625 -6.328125 "/></g></g></g><g fill="#000000" fill-opacity="1"><g transform="translate(256.810553, 268.959945)"><g><path d="M -0.1875 -1.140625 C -0.03125 -1.328125 0.0703125 -1.484375 0.125 -1.609375 C 0.175781 -1.742188 0.164062 -1.894531 0.09375 -2.0625 C 0.03125 -2.238281 -0.132812 -2.453125 -0.40625 -2.703125 L -4.296875 -6.375 C -4.679688 -6.738281 -4.972656 -7.039062 -5.171875 -7.28125 L -5.859375 -6.5 L -6.640625 -7.234375 L -3.890625 -10.15625 L -3.21875 -9.53125 C -3.382812 -9.332031 -3.488281 -9.164062 -3.53125 -9.03125 C -3.582031 -8.90625 -3.578125 -8.753906 -3.515625 -8.578125 C -3.453125 -8.410156 -3.289062 -8.203125 -3.03125 -7.953125 L -1.484375 -6.5 L -0.78125 -7.234375 L -1.375 -9.28125 C -1.632812 -10.144531 -1.753906 -10.695312 -1.734375 -10.9375 L -1.75 -10.9375 C -1.875 -10.78125 -1.988281 -10.640625 -2.09375 -10.515625 C -2.195312 -10.398438 -2.269531 -10.316406 -2.3125 -10.265625 L -3.09375 -11 L -0.734375 -13.5 L -0.0625 -12.875 C -0.332031 -12.550781 -0.519531 -12.203125 -0.625 -11.828125 C -0.726562 -11.453125 -0.695312 -10.945312 -0.53125 -10.3125 L 0.109375 -7.859375 L 0.125 -7.84375 C 0.53125 -7.945312 0.929688 -7.972656 1.328125 -7.921875 L 3.796875 -7.578125 C 4.984375 -7.410156 5.769531 -7.507812 6.15625 -7.875 L 6.828125 -7.25 L 5.34375 -5.671875 C 5.257812 -5.609375 5 -5.578125 4.5625 -5.578125 C 4.125 -5.578125 3.726562 -5.597656 3.375 -5.640625 L 0.96875 -6.03125 C 0.738281 -6.0625 0.503906 -6.082031 0.265625 -6.09375 C 0.0234375 -6.113281 -0.160156 -6.113281 -0.296875 -6.09375 L -0.65625 -5.71875 L 0.875 -4.28125 C 1.25 -3.925781 1.546875 -3.625 1.765625 -3.375 C 1.941406 -3.601562 2.171875 -3.867188 2.453125 -4.171875 L 3.234375 -3.4375 L 0.484375 -0.515625 Z M -0.1875 -1.140625 "/></g></g></g><g fill="#000000" fill-opacity="1"><g transform="translate(270.118653, 253.236397)"><g><path d="M -0.40625 -1.078125 C -0.28125 -1.296875 -0.203125 -1.472656 -0.171875 -1.609375 C -0.148438 -1.753906 -0.191406 -1.898438 -0.296875 -2.046875 C -0.398438 -2.203125 -0.609375 -2.378906 -0.921875 -2.578125 L -5.46875 -5.421875 C -5.90625 -5.703125 -6.25 -5.941406 -6.5 -6.140625 L -7.015625 -5.21875 L -7.921875 -5.796875 L -4.203125 -11.734375 L -1.859375 -10.359375 L -2.359375 -9.578125 C -2.953125 -9.941406 -3.445312 -10.050781 -3.84375 -9.90625 C -4.25 -9.769531 -4.5625 -9.5 -4.78125 -9.09375 L -5.046875 -8.65625 C -5.148438 -8.46875 -5.210938 -8.304688 -5.234375 -8.171875 C -5.265625 -8.035156 -5.222656 -7.890625 -5.109375 -7.734375 C -5.003906 -7.578125 -4.804688 -7.40625 -4.515625 -7.21875 L -2.75 -6.109375 L -1.875 -7.5 C -2 -7.570312 -2.347656 -7.773438 -2.921875 -8.109375 L -2.359375 -9.03125 L 0.53125 -7.21875 L 0.03125 -6.421875 C -0.289062 -6.617188 -0.550781 -6.710938 -0.75 -6.703125 C -0.957031 -6.703125 -1.132812 -6.632812 -1.28125 -6.5 C -1.425781 -6.375 -1.578125 -6.179688 -1.734375 -5.921875 L -1.921875 -5.59375 L 0.015625 -4.375 C 0.441406 -4.113281 0.785156 -3.878906 1.046875 -3.671875 L 2.046875 -5.265625 C 2.296875 -5.671875 2.367188 -6.097656 2.265625 -6.546875 C 2.171875 -6.992188 1.828125 -7.40625 1.234375 -7.78125 L 1.71875 -8.546875 L 4.296875 -6.859375 L 0.375 -0.59375 Z M -0.40625 -1.078125 "/></g></g></g><g fill="#000000" fill-opacity="1"><g transform="translate(279.553819, 236.324045)"><g><path d="M -0.609375 -0.984375 C -0.523438 -1.210938 -0.484375 -1.398438 -0.484375 -1.546875 C -0.484375 -1.691406 -0.546875 -1.828125 -0.671875 -1.953125 C -0.804688 -2.078125 -1.046875 -2.207031 -1.390625 -2.34375 L -6.390625 -4.265625 C -6.878906 -4.453125 -7.269531 -4.625 -7.5625 -4.78125 L -7.890625 -3.78125 L -8.890625 -4.15625 L -7.5 -7.875 C -7.050781 -9.070312 -6.488281 -9.914062 -5.8125 -10.40625 C -5.132812 -10.894531 -4.320312 -10.957031 -3.375 -10.59375 C -2.769531 -10.363281 -2.304688 -9.960938 -1.984375 -9.390625 C -1.671875 -8.816406 -1.550781 -8.113281 -1.625 -7.28125 C -1.488281 -7.414062 -1.3125 -7.535156 -1.09375 -7.640625 C -0.882812 -7.742188 -0.660156 -7.820312 -0.421875 -7.875 L 0.71875 -8.125 C 1.28125 -8.238281 1.6875 -8.359375 1.9375 -8.484375 C 2.195312 -8.617188 2.382812 -8.828125 2.5 -9.109375 L 3.359375 -8.78125 L 2.53125 -6.625 C 2.375 -6.519531 2.164062 -6.429688 1.90625 -6.359375 C 1.65625 -6.285156 1.335938 -6.210938 0.953125 -6.140625 L -0.984375 -5.796875 C -1.429688 -5.703125 -1.757812 -5.609375 -1.96875 -5.515625 L -2.234375 -4.828125 L -0.828125 -4.296875 C -0.335938 -4.109375 0.0507812 -3.941406 0.34375 -3.796875 C 0.425781 -4.085938 0.554688 -4.460938 0.734375 -4.921875 L 1.734375 -4.53125 L 0.25 -0.65625 Z M -2.921875 -5.8125 C -2.648438 -6.53125 -2.613281 -7.109375 -2.8125 -7.546875 C -3.007812 -7.992188 -3.453125 -8.347656 -4.140625 -8.609375 C -4.859375 -8.878906 -5.40625 -8.875 -5.78125 -8.59375 C -6.15625 -8.320312 -6.425781 -7.960938 -6.59375 -7.515625 C -6.707031 -7.210938 -6.722656 -6.960938 -6.640625 -6.765625 C -6.566406 -6.578125 -6.316406 -6.398438 -5.890625 -6.234375 L -3.21875 -5.21875 C -3.082031 -5.457031 -2.984375 -5.65625 -2.921875 -5.8125 Z M -2.921875 -5.8125 "/></g></g></g></svg>